<?xml version="1.0" standalone="no"?>
<!DOCTYPE svg PUBLIC "-//W3C//DTD SVG 20010904//EN"
 "http://www.w3.org/TR/2001/REC-SVG-20010904/DTD/svg10.dtd">
<svg version="1.0" xmlns="http://www.w3.org/2000/svg"
 width="64.000000pt" height="64.000000pt" viewBox="0 0 64.000000 64.000000"
 preserveAspectRatio="xMidYMid meet">

<g transform="translate(0.000000,64.000000) scale(0.100000,-0.100000)"
fill="#000000" stroke="none">
<path d="M269 576 c-125 -22 -234 -47 -243 -55 -22 -18 -21 -74 2 -94 16 -15
51 -17 285 -17 228 0 268 -2 281 -16 24 -23 24 -325 0 -348 -23 -24 -525 -24
-548 0 -13 13 -16 43 -16 175 0 99 -4 159 -10 159 -6 0 -10 -63 -10 -168 0
-151 2 -171 18 -185 16 -15 52 -17 294 -17 254 0 276 1 291 18 15 16 17 45 17
194 0 157 -2 177 -18 191 -16 15 -51 17 -284 17 -251 0 -266 1 -283 20 -21 23
-14 47 17 60 29 11 428 80 469 80 32 0 49 -27 49 -75 0 -23 16 -42 26 -32 11
11 -10 101 -27 118 -26 26 -46 24 -310 -25z"/>
</g>
</svg>
